<?xml version="1.0" standalone="no"?>
<!DOCTYPE svg PUBLIC "-//W3C//DTD SVG 1.1//EN" "http://www.w3.org/Graphics/SVG/1.1/DTD/svg11.dtd" >
<svg xmlns="http://www.w3.org/2000/svg">
<metadata>Generated by IcoMoon</metadata>
<defs>
<font id="icomoon" horiz-adv-x="1024">
<font-face units-per-em="1024" ascent="960" descent="-64" />
<missing-glyph horiz-adv-x="1024" />
<glyph unicode="&#x20;" horiz-adv-x="512" d="" />
<glyph unicode="&#xe02f;" glyph-name="library_books" d="M810 640.667v84h-426v-84h426zM640 298.667v86h-256v-86h256zM810 468.667v86h-426v-86h426zM854 852.667c46 0 84-38 84-84v-512c0-46-38-86-84-86h-512c-46 0-86 40-86 86v512c0 46 40 84 86 84h512zM170 682.667v-598h598v-84h-598c-46 0-84 38-84 84v598h84z" />
<glyph unicode="&#xe0cd;" glyph-name="phone" d="M282 478.667c62-120 162-220 282-282l94 94c12 12 30 16 44 10 48-16 100-24 152-24 24 0 42-18 42-42v-150c0-24-18-42-42-42-400 0-726 326-726 726 0 24 18 42 42 42h150c24 0 42-18 42-42 0-54 8-104 24-152 4-14 2-32-10-44z" />
<glyph unicode="&#xe0e1;" glyph-name="mail_outline" d="M512 468.667l342 214h-684zM854 170.667v426l-342-212-342 212v-426h684zM854 768.667c46 0 84-40 84-86v-512c0-46-38-86-84-86h-684c-46 0-84 40-84 86v512c0 46 38 86 84 86h684z" />
<glyph unicode="&#xe226;" glyph-name="attach_file" d="M704 682.667h64v-490c0-130-104-236-234-236s-236 106-236 236v532c0 94 78 172 172 172s170-78 170-172v-448c0-58-48-106-106-106s-108 48-108 106v406h64v-406c0-24 20-42 44-42s42 18 42 42v448c0 58-48 108-106 108s-108-50-108-108v-532c0-94 78-172 172-172s170 78 170 172v490z" />
<glyph unicode="&#xe235;" glyph-name="format_align_justify" d="M128 810.667h768v-86h-768v86zM128 554.667v86h768v-86h-768zM128 384.667v84h768v-84h-768zM128 212.667v86h768v-86h-768zM128 42.667v86h768v-86h-768z" />
<glyph unicode="&#xe2bc;" glyph-name="attachment" d="M86 404.667c0 130 104 236 234 236h448c94 0 170-78 170-172s-76-170-170-170h-362c-58 0-108 48-108 106s50 108 108 108h320v-86h-324c-24 0-24-42 0-42h366c46 0 86 38 86 84s-40 86-86 86h-448c-82 0-150-68-150-150s68-148 150-148h406v-86h-406c-130 0-234 104-234 234z" />
<glyph unicode="&#xe325;" glyph-name="phone_iphone" d="M682 170.667v598h-384v-598h384zM490 0.667c36 0 64 28 64 64s-28 64-64 64-64-28-64-64 28-64 64-64zM662 896.667c58 0 106-50 106-108v-724c0-58-48-108-106-108h-342c-58 0-106 50-106 108v724c0 58 48 108 106 108h342z" />
<glyph unicode="&#xe405;" glyph-name="music_note" d="M512 810.667h256v-170h-170v-428c0-94-78-170-172-170s-170 76-170 170 76 172 170 172c32 0 60-10 86-24v450z" />
<glyph unicode="&#xe545;" glyph-name="local_florist" d="M512 704.667c-58 0-106-50-106-108s48-106 106-106 106 48 106 106-48 108-106 108zM238 500.667c0 42 26 78 62 96-36 18-62 54-62 96 0 58 50 108 108 108 22 0 42-8 60-20v8c0 58 48 108 106 108s106-50 106-108v-8c18 12 38 20 60 20 58 0 108-50 108-108 0-42-26-78-62-96 36-18 62-54 62-96 0-58-50-106-108-106-22 0-42 6-60 18v-8c0-58-48-106-106-106s-106 48-106 106v8c-18-12-38-18-60-18-58 0-108 48-108 106zM512 0.667c-212 0-384 172-384 384 212 0 384-172 384-384zM512 0.667c0 212 172 384 384 384 0-212-172-384-384-384z" />
<glyph unicode="&#xe54e;" glyph-name="local_offer" d="M234 640.667c36 0 64 28 64 64s-28 64-64 64-64-28-64-64 28-64 64-64zM914 444.667c16-16 24-36 24-60s-8-44-24-60l-300-300c-16-16-36-24-60-24s-44 8-60 24l-384 384c-16 16-24 36-24 60v300c0 46 38 84 84 84h300c24 0 44-8 60-24z" />
<glyph unicode="&#xe567;" glyph-name="add_location" d="M682 512.667v84h-128v128h-84v-128h-128v-84h128v-128h84v128h128zM512 852.667c164 0 298-134 298-298 0-224-298-554-298-554s-298 330-298 554c0 164 134 298 298 298z" />
<glyph unicode="&#xe8ab;" glyph-name="polymer" d="M810 768.667l192-342-192-342h-170l192 342-112 198-336-540h-170l-192 342 192 342h170l-192-342 112-198 336 540h170z" />
<glyph unicode="&#xe8b4;" glyph-name="room" d="M512 448.667c58 0 106 48 106 106s-48 106-106 106-106-48-106-106 48-106 106-106zM512 852.667c166 0 298-132 298-298 0-224-298-554-298-554s-298 330-298 554c0 166 132 298 298 298z" />
<glyph unicode="&#xe900;" glyph-name="files" d="M213.333 938.667v-128h-128v-896h725.333v128h128v896h-725.333zM725.333-0h-554.667v725.333h42.667v-682.667h512v-42.667zM853.333 128h-554.667v725.333h554.667v-725.333zM640 725.334h-256v-85.333h256v85.333zM768 597.334h-384v-42.667h384v42.667zM768 512h-384v-42.667h384v42.667zM768 426.667h-384v-42.667h384v42.667zM512 341.334h-128v-42.667h128v42.667z" />
<glyph unicode="&#xe901;" glyph-name="paperclip" d="M903.211 737.835l-120.661 120.661c-83.2 83.157-218.539 83.157-301.696 0l-422.4-422.357 60.331-60.331 422.4 422.357c49.92 49.92 131.115 49.92 180.992 0l120.704-120.704c49.92-49.877 49.92-131.072 0-180.992l-422.357-422.357c-54.4-54.4-114.901-66.091-131.115-49.92l-19.755 19.712-96.171 96.171c-7.509 7.509-1.365 47.744 20.736 69.845l422.272 422.272c4.949 4.907 45.312-15.104 75.435-45.269v0c-13.184-13.184-10.112-10.155-15.061-15.104l-306.432-306.389 60.331-60.331 306.432 306.389c36.48 36.437 81.835 69.035 15.104 135.765v0c-66.688 66.731-133.845 107.52-196.096 45.269l-422.4-422.272c-49.835-49.92-69.248-141.909-20.651-190.507l65.92-66.005 50.005-49.92c56.576-56.576 167.168-34.645 251.733 49.92l422.357 422.357c83.2 83.2 83.2 218.539 0.043 301.739z" />
<glyph unicode="&#xe902;" glyph-name="tag" d="M938.069 562.304l-120.96 376.021-390.656-120.747-341.163-630.485 503.381-272.085 340.309 628.949c0.256 0.427 0.512 0.896 0.725 1.28l9.045 16.725-0.683 0.341zM756.48 583.040c-30.805-57.088-102.101-78.336-159.232-47.488-57.131 30.933-78.336 102.187-47.445 159.189 30.848 57.131 102.229 78.336 159.275 47.488 57.088-30.848 78.336-102.144 47.403-159.189z" />
<glyph unicode="&#xe903;" glyph-name="mapmarker" d="M511.957 938.667c-214.485 0-388.395-173.909-388.395-388.437 0-214.571 305.067-635.563 388.437-635.563 61.653 0 388.48 420.992 388.48 635.563-0.043 214.528-173.952 388.437-388.523 388.437zM510.208 359.083c-109.013 0-197.333 88.32-197.333 197.333s88.32 197.333 197.333 197.333 197.333-88.32 197.333-197.333-88.32-197.333-197.333-197.333z" />
<glyph unicode="&#xe904;" glyph-name="i_age" d="M904.698 758.165c-17.684 11.842-42.99 26.224-62.261 36.315-21.426 11.248-42.043 24.482-63.147 36.657-42.079 24.298-83.79 47.587-125.003 72.147-20.617 12.296-42.156 23.238-62.557 36.026-18.759 11.746-48.904 20.69-79.116 20.69h-6.159c-26.32 0-60.51-11.484-76.667-21.907-20.193-13.035-41.808-23.51-62.323-36.253-40.579-25.174-83.518-47.746-125.105-72.045-20.013-11.683-43.927-23.817-62.445-36.114-19.542-12.974-42.402-22.983-62.338-36.253-32.428-21.564-70.724-73.376-70.724-126.421v-365.958c0-53.316 38.306-104.442 70.975-126.175 38.152-25.384 84.22-49.067 124.537-72.613 41.598-24.298 84.542-46.85 125.105-72.050 20.49-12.717 41.93-23.694 62.558-36.017 18.088-10.803 47.598-22.143 76.432-22.143h13.557c46.636 0 105.415 39.258 137.275 58.652 41.056 24.989 82.715 47.23 124.353 71.553 39.811 23.264 86.355 47.132 123.8 72.121 31.814 21.242 71.712 72.577 71.712 124.205v370.887c-0.010 52.37-40.2 103.096-72.46 124.696zM875.039 162.045c-34.44-22.992-77.241-44.935-113.847-66.325-38.29-22.363-76.596-42.821-114.37-65.799-29.294-17.827-83.338-53.936-126.236-53.936h-12.467c-26.505 0-53.639 10.434-70.278 20.366-18.964 11.325-38.685 21.416-57.53 33.12-37.303 23.172-76.786 43.901-115.050 66.249-37.073 21.661-79.454 43.44-114.519 66.776-30.032 19.998-65.27 67.002-65.27 116.034v336.529c0 48.786 35.213 96.435 65.035 116.264 18.339 12.195 39.355 21.405 57.325 33.324 17.039 11.314 39.033 22.475 57.428 33.222 38.25 22.342 77.733 43.103 115.050 66.249 18.872 11.714 38.736 21.35 57.31 33.34 14.853 9.584 46.293 20.15 70.5 20.15h5.667c27.784 0 55.503-8.227 72.751-19.040 18.754-11.744 38.567-21.815 57.53-33.119 37.896-22.593 76.248-44.010 114.948-66.341 19.414-11.212 38.378-23.377 58.073-33.714 17.72-9.287 40.999-22.5 57.26-33.39 29.652-19.865 66.622-66.52 66.622-114.672v-341.065c0.010-47.49-36.688-94.69-65.932-114.221zM526.656 389.4c0.44 22.294 0-161.23 0-161.23h-29.314v146.572c0 60.080-49.483 102.602-102.602 102.602h-73.287c0-59.465 63.496-103.056 102.602-102.602h43.971v-29.314h-42.418c-67.205 0-125.79 52.473-133.47 117.258v43.974h101.824c67.542 0 125.205-51.887 132.694-117.259zM497.796 550.63c-0.44 22.323-0.454-58.614-0.454-58.614l29.314-29.33 0.396 73.287c0 60.081 49.38 102.602 102.397 102.602h73.14c0-59.48-63.379-103.056-102.397-102.602h-43.882v-29.314h42.33c67.073 0 125.54 52.459 133.22 117.258v43.973h-101.634c-67.41 0-124.954-51.886-132.43-117.258z" />
<glyph unicode="&#xe905;" glyph-name="i_edu" d="M512.1 353.112c-9.46 0-18.705 2.016-24.719 5.395l-413.32 231.89c-5.643 3.215-9.386 9.19-9.387 16.040v0c0 6.852 3.744 12.829 9.298 15.998l0.090 0.048 413.367 231.885c11.81 6.696 37.416 6.743 49.416-0.057l413.262-231.827c5.644-3.217 9.388-9.195 9.388-16.047v0c-0.001-6.85-3.744-12.826-9.297-15.992l-0.091-0.048-413.334-231.91c-5.963-3.364-15.207-5.375-24.673-5.375zM505.396 400.825c0.19 0 2.874-0.682 6.71-0.682 3.974 0 6.633 0.725 7.324 1.005l384.087 205.288-384.73 208.653c-0.166 0-2.85 0.69-6.682 0.69-4.003 0-6.638-0.72-7.335-1l-384.104-208.343 384.73-205.611zM935.905 185.059c-10.16 0-18.4 8.226-18.4 18.395v284.76c0 10.166 8.24 18.401 18.4 18.401 10.156 0 18.395-8.236 18.395-18.4v-284.76c0-10.17-8.238-18.396-18.395-18.396zM513.96 36.904l-319.236 167.388 90.552 303.777 228.686-114.93 228.687 114.93 90.555-303.777-319.244-167.388zM245.722 219.804l268.239-139.387 269.265 139.387-69.885 227.814-201.341-88.052-195.368 86.004-70.91-225.767z" />
<glyph unicode="&#xe906;" glyph-name="i_site" d="M770.015 348.906h-55.192c44.375 77.44 80.14 156.751 80.14 211.415 0 144.235-141.798 286.033-286.033 286.033s-286.032-141.797-286.032-286.032c0-54.665 39.34-133.975 88.152-211.415h-57.46c-46.586 77.445-80.437 153.602-80.437 211.415 0 185.444 150.334 335.778 335.777 335.778s335.778-150.334 335.778-335.778c0-57.814-31.434-133.97-74.693-211.416zM508.93 398.651c-89.286 0-161.67 72.384-161.67 161.67s72.384 161.67 161.67 161.67 161.67-72.383 161.67-161.67-72.383-161.67-161.67-161.67zM508.93 672.247c-61.815 0-111.926-50.11-111.926-111.926s50.11-111.926 111.926-111.926 111.926 50.11 111.926 111.926-50.111 111.926-111.926 111.926zM521.366 75.31s75.906 89.834 131.714 174.106h55.94c-88.498-133.915-187.655-248.724-187.655-248.724s-106.784 114.81-202.090 248.725h59.692c61.39-84.273 142.4-174.107 142.4-174.107z" />
<glyph unicode="&#xe907;" glyph-name="i_status" horiz-adv-x="1025" d="M1020.030 510.912c-16.64 135.68-85.376 256.704-193.472 340.735-108.096 84.096-242.624 121.216-378.815 104.384-138.816-17.024-262.336-88.448-345.983-198.080l-10.56 86.080c-1.408 11.712-12.096 20.032-23.872 18.56-11.84-1.408-20.096-12.096-18.688-23.808l18.496-150.272c-0.128-1.408-0.512-2.688-0.32-4.16 1.408-11.712 12.096-20.032 23.872-18.56l153.344 18.88c1.129 0.143 2.126 0.345 3.097 0.612l-0.153-0.036c10.176 2.688 17.024 12.544 15.744 23.232-1.472 11.712-12.16 20.032-23.872 18.56l-111.36-17.664c75.52 109.824 192.832 181.952 326.144 198.336 123.2 15.168 244.928-18.432 342.719-94.464 97.792-76.096 160-185.6 175.040-308.288 31.168-253.44-150.464-484.927-404.863-516.351-254.4-31.296-486.719 149.44-517.823 402.879-1.408 11.52-17.984 19.264-29.76 17.792s-20.096-12.096-18.688-23.808c34.368-280.128 291.136-479.807 572.287-445.247 27.122 3.416 51.072 8.216 74.386 14.561l-3.73-0.865c243.264 65.088 408.319 300.992 376.831 556.991zM554.623 676.48c0 14.848-11.456 26.88-25.536 26.88-14.144 0-25.536-12.032-25.536-26.88v-280.768l-189.312-66.496c-12.8-6.272-18.304-22.272-12.288-35.712 5.952-13.44 21.184-19.2 33.984-12.928l203.52 71.552c9.728 4.8 15.168 15.168 14.592 25.792 0.128 1.088 0.576 1.984 0.576 3.072v295.488z" />
<glyph unicode="&#xe908;" glyph-name="contact_blog" d="M260.813 365.238c20.509 17.712 30.763 40.862 30.763 69.45 0 22.994-6.759 41.678-20.276 56.050-13.516 14.37-31.542 22.875-54.068 25.52v0.932c18.021 5.903 32.162 15.848 42.416 29.83 10.255 13.984 15.382 30.45 15.382 49.409 0 22.682-8.47 41.093-25.403 55.233-16.937 14.136-39.853 21.209-68.751 21.209h-95.088v-334.201h97.417c31.23 0 57.099 8.856 77.608 26.568zM124.94 637.447h44.98c42.726 0 64.090-16.238 64.090-48.709 0-18.8-6.14-33.367-18.411-43.698-12.276-10.334-29.132-15.499-50.573-15.499h-40.086v107.906zM124.94 494.351h44.98c53.756 0 80.637-19.734 80.637-59.197 0-18.956-6.332-33.873-18.995-44.747-12.664-10.876-30.493-16.313-53.486-16.313h-53.136v120.256zM354.268 673.561h38.22v-334.891h-38.22v334.891zM656.19 372.569c21.518 22.916 32.278 53.405 32.278 91.474 0 38.84-9.985 69.218-29.947 91.125-19.967 21.907-47.74 32.86-83.318 32.86-37.288 0-66.886-11.266-88.793-33.792-21.907-22.53-32.86-53.836-32.86-93.922 0-36.822 10.523-66.384 31.577-88.677 21.052-22.297 49.212-33.444 84.484-33.444 36.2 0 65.058 11.457 86.578 34.376zM492.702 461.712c0 29.365 7.144 52.398 21.44 69.101 14.294 16.7 33.713 25.054 58.264 25.054 24.705 0 43.699-8.080 56.983-24.238 13.284-16.161 19.927-39.153 19.927-68.984 0-29.522-6.642-52.284-19.927-68.286-13.283-16.004-32.278-24.004-56.983-24.004-24.238 0-43.58 8.157-58.030 24.47s-21.674 38.608-21.674 66.887zM953.218 362.897v219.538h-38.221v-33.094h-0.931c-15.54 25.79-39.386 38.687-71.549 38.687-33.873 0-60.558-11.965-80.053-35.89-19.501-23.928-29.25-56.166-29.25-96.718 0-35.738 9.050-64.206 27.152-85.415 18.098-21.208 41.985-31.812 71.664-31.812 36.51 0 63.857 15.225 82.036 45.68h0.93v-26.103c0-24.48-4.531-44.14-13.553-59.026l-19.323-20.442c-0.276-0.187-0.546-0.38-0.826-0.563-6.044-3.734-48.824-27.7-110.058 0.474-66.173 30.446-160.318 32.94-183.513-46.76l27.289-21.030s0 37.52 42.296 52.528c31.419 11.15 65.623-2.943 92.686-14.557v-0.16c7.768-3.94 16.009-7.17 24.701-9.722l0.431-0.14c1.216-0.381 2.526-0.736 3.91-1.066 14.816-3.891 30.92-5.854 48.331-5.854 83.902 0.002 125.851 43.816 125.851 131.445zM894.838 393.194c-13.44-15.23-30.88-22.84-52.32-22.84-21.132 0-38.105 7.96-50.924 23.89-12.817 15.924-19.227 37.171-19.227 63.74 0 30.917 6.679 54.961 20.043 72.13 13.361 17.166 31.848 25.753 55.467 25.753 19.112 0 35.075-6.758 47.893-20.276s19.227-29.755 19.227-48.708v-35.192c0-23.771-6.721-43.272-20.16-58.497z" />
<glyph unicode="&#xe909;" glyph-name="contact_github" d="M941.714 448q0-143.433-83.712-258.011t-216.283-158.574q-15.433-2.853-22.565 3.986t-7.131 17.152v120.576q0 55.442-29.696 81.152 32.585 3.438 58.587 10.277t53.723 22.272 46.299 37.998 30.281 60.014 11.703 86.016q0 69.157-45.129 117.723 21.138 52.005-4.571 116.553-16.018 5.157-46.299-6.29t-52.553-25.161l-21.723-13.714q-53.138 14.848-109.714 14.848t-109.714-14.848q-9.143 6.29-24.283 15.433t-47.726 22.016-49.152 7.717q-25.161-64.585-3.986-116.553-45.129-48.567-45.129-117.723 0-48.567 11.703-85.723t29.989-60.014 46.007-38.29 53.723-22.272 58.587-10.277q-22.857-20.553-28.014-58.843-11.995-5.705-25.71-8.558t-32.585-2.853-37.413 12.288-31.707 35.73q-10.862 18.286-27.721 29.696t-28.27 13.714l-11.447 1.719q-11.995 0-16.567-2.56t-2.853-6.583 5.157-8.009 7.424-6.839l3.986-2.853q12.581-5.705 24.869-21.723t17.993-29.147l5.705-13.129q7.424-21.723 25.161-35.145t38.29-17.152 39.717-3.986 31.707 2.011l13.129 2.304q0-21.723 0.293-50.871t0.293-30.866q0-10.277-7.424-17.152t-22.857-3.986q-132.571 43.995-216.283 158.574t-83.712 258.011q0 119.442 58.843 220.27t159.707 159.707 220.27 58.843 220.27-58.843 159.707-159.707 58.843-220.27z" />
<glyph unicode="&#xe90a;" glyph-name="contact_wb" d="M441.566 68.306c-12.222 0-24.269 0.458-36.086 1.388-209.236 16.494-327.685 97.052-342.547 232.962-0.396 3.068-9.352 80.743 65.414 180.823 5.278 7.372 109.15 150.677 232.856 193.127 52.643 17.946 92.406 17.682 118.208-0.782 21.506-15.39 32.41-42.227 32.41-79.766v-0.932l-0.168-0.916c-1.015-5.536-2.169-10.752-3.188-15.354-1.469-6.638-3.425-15.473-3.148-19.17 2.020-0.192 7.366 0.020 19.938 3.884 10.944 4.988 128.543 56.764 181.217 3.974 36.154-36.268 21.126-86.482 8.13-107.966l-0.504-0.832-0.65-0.723c-0.668-0.796-1.444-2.39-1.41-2.986 0.354-0.646 3.648-3.323 13.302-5.2l0.052-0.011c23.124-4.623 73.024-25.581 96.37-71.817 18.152-35.952 16.024-78.36-6.33-126.044-36.188-77.096-114.214-121.411-173.298-145.013-62.736-25.062-134.046-38.646-200.568-38.646zM429.506 669.501c-17.076 0-37.676-4.091-61.675-12.273-118.121-40.533-221.853-184.3-222.887-185.746l-0.13-0.18c-69.927-93.55-61.637-165.512-61.545-166.228 17.275-157.966 185.627-204.070 323.819-214.964 143.659-11.296 333.54 50.692 389.802 170.554 19.544 41.69 21.762 78.068 6.59 108.116-20.516 40.632-66.182 57.774-82.080 60.96-15.96 3.11-25.654 9.472-28.808 18.91-3.424 10.239 2.454 19.094 4.816 22.096 3.29 5.778 26.774 50.024-5.436 82.337-36.58 36.652-126.986 6.377-158.734-8.384l-1.276-0.492c-15.814-4.917-31.716-8.3-40.946 0.19-9.268 8.521-6.302 21.92-2.548 38.885 0.967 4.371 1.966 8.882 2.87 13.703-0.16 30.057-8.182 50.975-23.847 62.184-9.624 6.888-22.323 10.332-37.985 10.332zM947.032 474.987l-19.62 5.874c21.652 72.331 17.65 134.865-11.894 185.865-28.11 48.522-80.898 85.914-141.206 100.023l-0.206 0.048c-48.338 11.264-113.312-1.172-113.966-1.3l-0.030-0.006-3.902 20.105 0.034 0.007 0.45 0.086c46.124 8.882 87.264 9.22 122.292 1 65.698-15.37 123.366-56.379 154.254-109.697 32.49-56.082 37.13-124.046 13.794-202.005zM827.6 519.956l-20.356 2.258c5.024 45.285-3.434 78.509-25.14 98.75-34.512 32.182-92.478 22.062-93.060 21.956l-3.718 20.138c2.776 0.52 68.498 12.162 110.644-27.022 26.772-24.888 37.414-63.943 31.63-116.080z" />
<glyph unicode="&#xe90b;" glyph-name="contact_zh" d="M430.080 3629.227c0-15.36-11.947-29.014-29.013-29.014-15.36 0-29.014 11.947-29.014 29.014 0 51.2 20.48 90.453 51.2 119.466 40.96 39.254 97.28 56.32 131.414 59.734 6.826 0 13.653 3.413 17.066 6.826 1.707 1.707 3.414 5.12 5.12 8.534-27.306 22.186-39.253 52.906-49.493 78.506-5.12 11.947-8.533 23.894-11.947 25.6-11.946 11.947-29.013 32.427-37.546 56.32s-10.24 49.494 1.706 71.68c-6.826 20.48-10.24 44.374-10.24 68.267 0 30.72 5.12 63.147 15.36 90.453v1.707c13.654 40.96 37.547 69.973 66.56 90.453 32.427 22.187 71.68 30.72 116.054 32.427 17.066 0 39.253 1.707 61.44-3.413 25.6-5.12 49.493-15.36 63.146-34.134 29.014 3.414 56.32-13.653 76.8-37.546 25.6-29.014 42.667-71.68 46.080-97.28 3.414-18.774 3.414-37.547 0-58.027-1.706-17.067-5.12-32.427-10.24-51.2 15.36-23.893 13.654-51.2 3.414-75.093-8.534-23.894-25.6-44.374-37.547-56.32-3.413-1.707-6.827-13.654-11.947-25.6-10.24-25.6-22.186-54.614-47.786-76.8 0-3.414 1.706-8.534 5.12-10.24 5.12-3.414 10.24-6.827 17.066-6.827 34.134-3.413 90.454-20.48 131.414-59.733 29.013-29.014 51.2-66.56 51.2-119.467 0-15.36-11.947-29.013-29.014-29.013-15.36 0-29.013 11.946-29.013 29.013 0 34.133-13.653 59.733-32.427 78.507-30.72 29.013-71.68 40.96-97.28 44.373-20.48 1.707-39.253 10.24-52.906 23.893-15.36 15.36-37.547 69.974-8.534 88.747 20.48 11.947 30.72 37.547 39.254 59.733 6.826 18.774 15.36 35.84 27.306 47.787 6.827 6.827 17.067 18.773 22.187 34.133 3.413 10.24 5.12 20.48-1.707 29.014-6.826 8.533-10.24 22.186-6.826 34.133 5.12 17.067 10.24 34.133 11.946 51.2 1.707 15.36 1.707 29.013 0 42.667-3.413 17.066-15.36 47.786-34.133 68.266-10.24 11.947-20.48 18.774-29.013 18.774-10.24-1.707-20.48 0-29.014 3.413s-15.36 8.533-20.48 17.067l-1.706 3.413c-3.414 6.827-15.36 10.24-27.307 11.947-17.067 3.413-35.84 3.413-49.493 3.413-34.134 0-63.147-8.533-85.334-23.893-20.48-13.654-35.84-34.134-44.373-61.44v-1.707c-6.827-22.187-11.947-47.787-11.947-71.68 0-22.187 3.414-42.667 10.24-59.733 3.414-5.12 3.414-11.947 3.414-18.774-3.414-18.773-18.774-18.773-8.534-42.666 5.12-13.654 15.36-27.307 22.187-32.427 11.947-11.947 18.773-27.307 27.307-46.080 8.533-22.187 18.773-47.787 39.253-59.733 8.533-5.12 15.36-13.654 15.36-25.6 0-23.894-3.413-46.080-22.187-63.147-13.653-13.653-32.426-22.187-52.906-23.893-25.6-3.414-66.56-15.36-97.28-44.374-18.774-23.893-32.427-49.493-32.427-83.626zM508.587 448h-110.934v175.787h98.987c6.827 0 13.653 6.826 13.653 13.653s-6.826 13.653-13.653 13.653h-184.32c6.827 23.894 8.533 46.080 10.24 63.147 0 5.12 0 8.533 1.707 13.653 0 6.827-5.12 13.654-11.947 15.36-8.533 1.707-13.653-5.12-15.36-11.946 0-5.12 0-8.534-1.707-13.654-3.413-37.546-6.826-90.453-73.386-150.186-5.12-5.12-5.12-13.654 0-18.774 3.413-3.413 6.826-5.12 10.24-5.12 3.413 0 6.826 1.707 8.533 3.414 30.72 27.306 49.493 54.613 61.44 80.213 1.707-1.707 5.12-3.413 8.533-3.413h58.027v-175.787h-129.707c-6.826 0-13.653-6.827-13.653-13.653s6.827-13.654 13.653-13.654h129.707c-3.413-83.626-29.013-187.733-136.533-240.64-6.827-3.413-10.24-11.946-6.827-18.773 1.707-5.12 6.827-6.827 11.947-6.827 1.706 0 3.413 0 6.826 1.707 97.28 47.787 148.48 138.24 151.894 264.533h110.933c6.827 0 13.653 6.827 13.653 13.654s-5.12 13.653-11.946 13.653zM428.373 328.533c-5.12 5.12-13.653 6.827-18.773 1.707s-6.827-13.653-1.707-18.773l81.92-97.28c3.414-3.414 6.827-5.12 10.24-5.12s6.827 1.706 8.534 3.413c5.12 5.12 6.826 13.653 1.706 18.773l-81.92 97.28zM791.893 654.507h-203.093c-6.827 0-13.653-6.827-13.653-13.654v-406.186c0-6.827 6.826-13.654 13.653-13.654h27.307l3.413-40.96c0-5.12 3.413-8.533 8.533-11.946 1.707 0 3.414-1.707 5.12-1.707 3.414 0 6.827 1.707 8.534 3.413l64.853 51.2h85.333c3.414 0 6.827 1.707 10.24 3.414s3.414 6.826 3.414 10.24v407.893c0 6.827-6.827 11.947-13.654 11.947zM776.533 248.32h-75.093c-3.413 0-6.827-1.707-8.533-3.413l-47.787-37.547-3.413 29.013c0 6.827-6.827 11.947-13.654 11.947h-25.6v380.587h174.080v-380.587z" />
<glyph unicode="&#xe90c;" glyph-name="nav_contact" d="M958.244 768.859c-0.023 0.062-0.015 0.585-0.038 0.654-3.692 12.296-14.653 21.875-28.162 21.875h-836.090c-16.485 0-29.86-14.253-29.86-30.765v-122.669c0-16.507 13.375-29.869 29.86-29.869 16.49 0 29.864 13.362 29.864 29.87v53.62l368.077-335.052c5.7-5.196 12.906-7.779 20.105-7.779 7.205 0 14.405 2.583 20.105 7.779l368.082 335.033v-527.229h-776.369v237.689c0 16.513-13.375 29.863-29.863 29.863-16.486 0-29.86-13.351-29.86-29.863v-261.92c0-16.508 13.374-35.484 29.86-35.484h836.090c16.49 0 29.86 18.976 29.86 35.483v620.528c0 2.927-0.88 5.578-1.66 8.236zM512 419.884l-342.528 311.793h685.080l-342.552-311.793z" />
<glyph unicode="&#xe90d;" glyph-name="nav_exp" d="M928.359 437.16c0 103.613-38.26 198.286-101.415 270.675 9.34 16.018 14.696 34.645 14.696 54.525 0 59.862-48.533 108.394-108.4 108.394-35.204 0-66.483-16.787-86.284-42.787-41.013 13.69-84.896 21.112-130.512 21.112-225.26 0-408.28-180.816-411.855-405.229-30.333-9.845-52.268-38.32-52.268-71.935 0-41.774 33.86-75.63 75.63-75.63 0.433 0 0.859 0.025 1.29 0.032 57.534-158.133 209.178-271.070 387.202-271.070 60.291 0 117.557 12.955 169.166 36.23 15.615-20.7 40.408-34.085 68.332-34.085 47.246 0 85.55 38.304 85.55 85.556 0 18.542-5.918 35.69-15.941 49.701 65.177 72.864 104.809 169.057 104.809 274.51zM733.493 828.612c35.597 0 64.457-29.593 64.457-66.090 0-36.5-28.86-66.089-64.457-66.089-35.6 0-64.457 29.588-64.457 66.090-0.001 36.496 28.858 66.089 64.457 66.089zM128.65 341.086c-17.32 0-31.361 14.047-31.361 31.367s14.040 31.354 31.361 31.354 31.361-14.033 31.361-31.354-14.040-31.367-31.36-31.367zM754.92 68.606c-23.948 0-43.36 19.412-43.36 43.362 0 23.947 19.412 43.36 43.36 43.36s43.36-19.413 43.36-43.36c0-23.95-19.413-43.362-43.36-43.362zM790.974 190.082c-11.206 5.389-23.768 8.41-37.034 8.41-47.246 0-85.55-38.296-85.55-85.545 0-4.152 0.313-8.23 0.884-12.223-46.867-21.403-98.967-33.335-153.855-33.335-158.927 0-294.495 99.99-347.243 240.49 21.265 13.385 35.405 37.050 35.405 64.036 0 36.010-25.172 66.118-58.873 73.745 3.984 201.334 168.427 363.315 370.71 363.315 39.532 0 77.618-6.192 113.343-17.649-2.489-8.665-3.921-18.616-3.921-28.903 0-0.022 0-0.044 0-0.067v0.003c0-59.87 48.532-108.403 108.399-108.403 24.937 0 47.903 8.426 66.218 22.579 54.141-64.45 86.754-147.591 86.754-238.354 0-95.406-36.037-182.392-95.237-248.1z" />
<glyph unicode="&#xe90e;" glyph-name="nav_home-1" horiz-adv-x="1117" d="M293.236-40.727c-27.927 0-60.509 9.309-79.127 32.582-23.273 23.272-32.582 51.2-32.582 83.781v237.382c0 13.964-9.309 23.273-23.272 23.273h-83.782c-32.582 0-41.891 18.618-46.546 23.273-4.654 9.309-9.309 27.927 13.964 51.2l460.8 502.69c13.964 13.964 27.927 23.273 46.545 23.273s37.237-9.309 51.2-23.272l479.419-502.691c23.272-23.273 18.618-41.891 13.963-51.2s-13.963-23.273-41.89-23.273h-93.092c-4.654 0-13.963 0-13.963-4.655-13.964 0-13.964-9.309-13.964-13.963v-237.383c0-65.164-51.2-116.364-116.364-116.364h-176.872v297.892h-172.218l4.654-297.89-176.873-4.655zM79.127 387.49h79.128c37.236 0 69.818-32.582 69.818-69.818v-242.037c0-18.618 9.309-37.236 18.618-51.2 13.964-13.963 27.927-18.618 46.545-18.618h130.328l-4.655 297.891h265.31v-297.89h130.326c37.237 0 69.819 32.581 69.819 69.817v237.383c0 18.618 9.309 37.237 18.618 51.2 13.963 13.964 32.582 18.618 46.545 18.618h83.782l-470.109 502.691c-4.655 4.655-9.31 4.655-13.964 4.655s-9.309-4.655-13.963-4.655l-456.146-498.036z" />
<glyph unicode="&#xe90f;" glyph-name="nav_home" horiz-adv-x="1117" d="M293.236-40.727c-27.927 0-60.509 9.309-79.127 32.582-23.273 23.272-32.582 51.2-32.582 83.781v237.382c0 13.964-9.309 23.273-23.272 23.273h-83.782c-32.582 0-41.891 18.618-46.546 23.273-4.654 9.309-9.309 27.927 13.964 51.2l460.8 502.69c13.964 13.964 27.927 23.273 46.545 23.273s37.237-9.309 51.2-23.272l479.419-502.691c23.272-23.273 18.618-41.891 13.963-51.2s-13.963-23.273-41.89-23.273h-93.092c-4.654 0-13.963 0-13.963-4.655-13.964 0-13.964-9.309-13.964-13.963v-237.383c0-65.164-51.2-116.364-116.364-116.364h-176.872v297.892h-172.218l4.654-297.89-176.873-4.655zM79.127 387.49h79.128c37.236 0 69.818-32.582 69.818-69.818v-242.037c0-18.618 9.309-37.236 18.618-51.2 13.964-13.963 27.927-18.618 46.545-18.618h130.328l-4.655 297.891h265.31v-297.89h130.326c37.237 0 69.819 32.581 69.819 69.817v237.383c0 18.618 9.309 37.237 18.618 51.2 13.963 13.964 32.582 18.618 46.545 18.618h83.782l-470.109 502.691c-4.655 4.655-9.31 4.655-13.964 4.655s-9.309-4.655-13.963-4.655l-456.146-498.036z" />
<glyph unicode="&#xe910;" glyph-name="nav_skills" horiz-adv-x="1054" d="M600.775 531.016l37.506-16.394-113.837-260.446-37.507 16.395 113.838 260.445zM711.111 276.346l-17.901 36.812 162.898 79.226-163.253 83.342 18.609 36.456 236.405-120.687-236.758-115.149zM100.854 678.415c0-28.258 22.908-51.166 51.166-51.166s51.166 22.908 51.166 51.166c0 28.258-22.908 51.165-51.166 51.165s-51.166-22.907-51.166-51.165zM254.35 678.415c0-28.258 22.908-51.166 51.166-51.166s51.165 22.908 51.165 51.166c0 28.258-22.907 51.165-51.165 51.165s-51.166-22.907-51.166-51.165zM407.845 678.415c0-28.258 22.908-51.166 51.166-51.166s51.165 22.908 51.165 51.166c0 28.258-22.906 51.165-51.165 51.165s-51.166-22.907-51.166-51.165zM420.939 276.521l-236.404 120.685 236.759 115.149 17.903-36.813-162.899-79.226 163.253-83.343-18.612-36.452zM943.998 600.5h-35.077v215.084h-213.924v33.916h249.001zM98.708 284.006h36.341v-222.835h221.632v-35.139h-257.973z" />
<glyph unicode="&#xe911;" glyph-name="nav_works" d="M449.34 514.548h-50.458v309.398h-307.73v48.788h358.188zM91.236 872.412h50.435v-309.253h307.584v-48.766h-358.019zM500.224 673.377l238.874 266.616 47.415-42.48-238.874-266.617-47.415 42.48zM719.424 476.988l238.874 266.617 47.414-42.48-238.874-266.617-47.414 42.48zM739.104 939.995l266.618-238.875-42.482-47.415-266.618 238.875 42.482 47.415zM542.715 720.795l266.618-238.876-42.482-47.415-266.618 238.875 42.482 47.416zM449.34 21.015h-50.458v309.397h-307.73v48.788h358.188zM91.236 377.791h50.435v-309.253h307.585v-48.765h-358.020zM943.628 21.015h-50.458v309.397h-307.73v48.788h358.188zM585.44 379.115h50.435v-309.253h307.585v-48.764h-358.020z" />
</font>
</defs>
</svg>
